<?xml version="1.0" encoding="UTF-8" standalone="no"?>
<svg
   xmlns:dc="http://purl.org/dc/elements/1.1/"
   xmlns:cc="http://creativecommons.org/ns#"
   xmlns:rdf="http://www.w3.org/1999/02/22-rdf-syntax-ns#"
   xmlns:svg="http://www.w3.org/2000/svg"
   xmlns="http://www.w3.org/2000/svg"
   xmlns:sodipodi="http://sodipodi.sourceforge.net/DTD/sodipodi-0.dtd"
   xmlns:inkscape="http://www.inkscape.org/namespaces/inkscape"
   id="aed41a3e-9a9b-4c8e-8d22-a7de3d04fd44"
   data-name="Layer 1"
   width="371.53208"
   height="150.0248"
   viewBox="0 0 371.53208 150.0248"
   version="1.1"
   sodipodi:docname="LogoOptoPlus.svg"
   inkscape:version="0.92.4 (5da689c313, 2019-01-14)"
   inkscape:export-filename="C:\Users\a.tucci\Documents\Visual Studio Code\OptoplusClient\OptoPlusClientUI\Images\LogoOptoPlus.png"
   inkscape:export-xdpi="81.389999"
   inkscape:export-ydpi="81.389999">
  <metadata
     id="metadata52">
    <rdf:RDF>
      <cc:Work
         rdf:about="">
        <dc:format>image/svg+xml</dc:format>
        <dc:type
           rdf:resource="http://purl.org/dc/dcmitype/StillImage" />
        <dc:title>LogoOptoPlus</dc:title>
      </cc:Work>
    </rdf:RDF>
  </metadata>
  <sodipodi:namedview
     pagecolor="#ffffff"
     bordercolor="#666666"
     borderopacity="1"
     objecttolerance="10"
     gridtolerance="10"
     guidetolerance="10"
     inkscape:pageopacity="0"
     inkscape:pageshadow="2"
     inkscape:window-width="1920"
     inkscape:window-height="1017"
     id="namedview50"
     showgrid="false"
     inkscape:zoom="0.97165232"
     inkscape:cx="125.55932"
     inkscape:cy="75.012398"
     inkscape:window-x="1912"
     inkscape:window-y="-8"
     inkscape:window-maximized="1"
     inkscape:current-layer="aed41a3e-9a9b-4c8e-8d22-a7de3d04fd44" />
  <defs
     id="defs7">
    <style
       id="style2">
      .b467d56a-31b5-4a54-ac29-21284d9f245f {
        fill: none;
      }

      .aa485449-5178-439a-afb4-500bd46ff83a {
        clip-path: url(#a162f785-8aa3-4654-8afb-04b380e99052);
      }

      .b160f0ba-3409-4805-a56d-b13ac1d0454a {
        fill: #009fe3;
      }
    </style>
    <clipPath
       id="a162f785-8aa3-4654-8afb-04b380e99052">
      <rect
         class="b467d56a-31b5-4a54-ac29-21284d9f245f"
         x="-97.6986"
         y="-66.7204"
         width="566.92902"
         height="283.465"
         id="rect4" />
    </clipPath>
  </defs>
  <title
     id="title9">LogoOptoPlus</title>
  <g
     class="aa485449-5178-439a-afb4-500bd46ff83a"
     clip-path="url(#a162f785-8aa3-4654-8afb-04b380e99052)"
     id="g47">
    <path
       class="b160f0ba-3409-4805-a56d-b13ac1d0454a"
       d="M137.9342,24.81709a36.13345,36.13345,0,0,1-9.961-7.032,18.23239,18.23239,0,0,1-4.891-8.447,14.40083,14.40083,0,0,1,.415-8.14c-.366-.01-.722-.052-1.091-.052h-5.195a22.98488,22.98488,0,0,0-1.523,3.484,19.34563,19.34563,0,0,0,.876,14.575,25.14544,25.14544,0,0,0,4.139,6.212h1.703a12.005,12.005,0,0,1,8.653,3.467,11.26936,11.26936,0,0,1,3.421,6.7c2.033,1.032,4.105,1.998,6.249,2.843a97.70637,97.70637,0,0,0,18.189,5.118v-6.1a37.163,37.163,0,0,0-.582-6.449c-1.208-.192-2.415-.4-3.617-.643a66.67062,66.67062,0,0,1-16.785-5.536"
       id="path11" />
    <path
       class="b160f0ba-3409-4805-a56d-b13ac1d0454a"
       d="M93.91911,39.24629a46.07474,46.07474,0,0,0,8.231,8.279,67.949,67.949,0,0,0,8.226,5.513v-15.93c-1.216-.811-2.409-1.658-3.549-2.588a29.78629,29.78629,0,0,1-8.297-9.957,19.57288,19.57288,0,0,1-.144-17.645,28.01025,28.01025,0,0,1,3.675-5.772h-5.453c-.195.22-.405.424-.596.648a35.75115,35.75115,0,0,0-6.762,11.316,25.61974,25.61974,0,0,0-1.398,11.468,29.19813,29.19813,0,0,0,6.067,14.668"
       id="path13" />
    <path
       class="b160f0ba-3409-4805-a56d-b13ac1d0454a"
       d="M158.44889,67.4109a37.51917,37.51917,0,0,0,.469-5.695v-11.272c-1.662-.07-3.324-.141-4.984-.271a120.67818,120.67818,0,0,1-19.286-3.058v14.442a12.62483,12.62483,0,0,1-.121,1.309q5.7255,1.5885,11.591,2.712c4.091.782,8.204,1.373,12.331,1.833"
       id="path15" />
    <path
       class="b160f0ba-3409-4805-a56d-b13ac1d0454a"
       d="M136.652,3.99339c-.019-.008-.038-.013-.057-.021.045.372.084.742.158,1.12a16.44338,16.44338,0,0,0,3.191,6.887,31.04311,31.04311,0,0,0,9.767,8.055,51.72491,51.72491,0,0,0,6.17,2.888,36.58428,36.58428,0,0,0-19.229-18.929"
       id="path17" />
    <path
       class="b160f0ba-3409-4805-a56d-b13ac1d0454a"
       d="M148.25939,87.3582a36.98572,36.98572,0,0,0,7.809-11.502c.108-.247.18-.505.282-.754q-4.49848.042-8.997-.131a174.41408,174.41408,0,0,1-20.576-2.021,12.245,12.245,0,0,1-4.372.796h-12.029v-4.296a111.35748,111.35748,0,0,1-18.813-6.919c-1.863-.898-3.675-1.876-5.457-2.9v14.115h-6.12v1.453a106.30706,106.30706,0,0,0,12.123,6.862,152.31947,152.31947,0,0,0,28.965,10.331c4.858,1.235,9.757,2.247,14.683,3.105.295-.118.602-.204.895-.33a36.65252,36.65252,0,0,0,11.607-7.809"
       id="path19" />
    <path
       class="b160f0ba-3409-4805-a56d-b13ac1d0454a"
       d="M107.191,104.8796c-6.168-.962-12.276-2.18-18.315-3.697h-2.77v45.375h24.27v-41.248c-1.061-.15-2.125-.264-3.185-.43"
       id="path21" />
    <path
       class="b160f0ba-3409-4805-a56d-b13ac1d0454a"
       d="M349.81309,21.719h21.719V17.885a2.11324,2.11324,0,0,0-.514-1.508,1.92111,1.92111,0,0,0-1.473-.55h-13.224V2.124a2.20113,2.20113,0,0,0-.548-1.508,1.92067,1.92067,0,0,0-1.508-.616h-4.452Z"
       id="path23" />
    <path
       class="b160f0ba-3409-4805-a56d-b13ac1d0454a"
       d="M346.56409,21.719V0h-4.59a2.11539,2.11539,0,0,0-1.506.513,1.91761,1.91761,0,0,0-.55,1.474v13.84h-12.949a2.016,2.016,0,0,0-1.542.619,2.20114,2.20114,0,0,0-.583,1.575v3.698Z"
       id="path25" />
    <path
       class="b160f0ba-3409-4805-a56d-b13ac1d0454a"
       d="M346.56409,24.968h-21.72v3.836a1.75442,1.75442,0,0,0,.72,1.576,2.37321,2.37321,0,0,0,1.268.479h13.086V44.563a2.02526,2.02526,0,0,0,.617,1.542,2.2054,2.2054,0,0,0,1.577.582h4.452Z"
       id="path27" />
    <path
       class="b160f0ba-3409-4805-a56d-b13ac1d0454a"
       d="M349.81309,24.968V46.687h4.452a1.75272,1.75272,0,0,0,1.576-.719,2.387,2.387,0,0,0,.48-1.268V30.859h13.087a2.19375,2.19375,0,0,0,1.508-.547,1.91635,1.91635,0,0,0,.616-1.508V24.968Z"
       id="path29" />
    <path
       d="M313.18031,88.7908v19.63a33.89338,33.89338,0,0,1-2.757,13.647,35.59639,35.59639,0,0,1-18.566,18.565,35.15564,35.15564,0,0,1-27.285,0,35.62316,35.62316,0,0,1-18.567-18.571,33.92152,33.92152,0,0,1-2.755-13.641V42.9158a33.955,33.955,0,0,1,2.755-13.64,35.59267,35.59267,0,0,1,18.571-18.568,35.15059,35.15059,0,0,1,27.283,0,35.573,35.573,0,0,1,18.566,18.57,33.88648,33.88648,0,0,1,2.755,13.638v26.156l6.638-1.898V42.9158a40.46813,40.46813,0,0,0-3.308-16.289,42.20155,42.20155,0,0,0-22.002-22.004,41.78242,41.78242,0,0,0-32.583-.002,42.24335,42.24335,0,0,0-22.005,22.006,40.52651,40.52651,0,0,0-3.307,16.289v65.505a40.53543,40.53543,0,0,0,3.305,16.292,42.26129,42.26129,0,0,0,22.004,22.004,41.77086,41.77086,0,0,0,32.583,0,42.23342,42.23342,0,0,0,22.003-21.995,40.54382,40.54382,0,0,0,3.31-16.301V90.6368Z"
       id="path31" />
    <path
       d="M299.7819,21.3396a31.04505,31.04505,0,0,0-4.488-3.709l-1.908,6.858q.88651.7335,1.701,1.546a24.77433,24.77433,0,0,1,5.197,7.662,22.93615,22.93615,0,0,1,1.834,9.22v65.504a22.98734,22.98734,0,0,1-1.834,9.227,24.5625,24.5625,0,0,1-12.844,12.84,24.20531,24.20531,0,0,1-18.449.002,24.53641,24.53641,0,0,1-12.844-12.846,22.96814,22.96814,0,0,1-1.834-9.223v-65.504a22.99373,22.99373,0,0,1,1.834-9.224,24.74372,24.74372,0,0,1,5.191-7.653c.432-.433.893-.836,1.356-1.234l-1.965-6.869a30.58316,30.58316,0,0,0-10.666,13.107,29.5522,29.5522,0,0,0-2.387,11.873v65.504a29.55689,29.55689,0,0,0,2.385,11.873,31.17761,31.17761,0,0,0,16.281,16.281,30.71486,30.71486,0,0,0,23.748,0,31.2,31.2,0,0,0,16.278-16.276,29.55254,29.55254,0,0,0,2.388-11.878v-65.504a29.50155,29.50155,0,0,0-2.388-11.871,31.37566,31.37566,0,0,0-6.586-9.706"
       id="path33" />
    <path
       d="M292.07481,29.0144a19.56991,19.56991,0,0,0-27.909.097,19.606,19.606,0,0,0-5.654,13.947v30.538l6.637,1.845v-32.383a13.08635,13.08635,0,0,1,3.771-9.315,12.93264,12.93264,0,0,1,18.473-.025,12.93916,12.93916,0,0,1,3.889,9.34v65.221a13.24237,13.24237,0,0,1-13.065,13.21,12.703,12.703,0,0,1-9.295-3.888,13.10788,13.10788,0,0,1-3.773-9.322v-25.469l-6.637,1.898v23.571a19.61973,19.61973,0,0,0,5.659,13.957,19.57681,19.57681,0,0,0,27.909.087,19.44479,19.44479,0,0,0,5.84-14.044v-65.221a19.443,19.443,0,0,0-5.845-14.044"
       id="path35" />
    <path
       d="M276.21159,86.283V43.059a1.92533,1.92533,0,0,1,.627-1.59,1.5845,1.5845,0,0,1,1.378-.556,1.66673,1.66673,0,0,1,1.37.646,1.78855,1.78855,0,0,1,.633,1.5V86.08l6.568,22.964c.021-.256.07-.499.07-.765V43.059a8.36758,8.36758,0,0,0-2.586-6.201,8.50624,8.50624,0,0,0-12.185-.024,8.51926,8.51926,0,0,0-2.513,6.225v65.22a9.77909,9.77909,0,0,0,.126,1.433Z"
       id="path37" />
    <path
       class="b160f0ba-3409-4805-a56d-b13ac1d0454a"
       d="M62.79459,59.6331a60.36379,60.36379,0,0,0,9.805,10.149v-20.479a38.34558,38.34558,0,0,1-5.138-6.647,28.01968,28.01968,0,0,1-4.008-11.818,26.352,26.352,0,0,1,2.559-13.947,36.93075,36.93075,0,0,0-2.897-3.587c-.079.108-.166.208-.244.316a42.42287,42.42287,0,0,0-7.601,16.919,33.79869,33.79869,0,0,0,.334,14.086,39.91669,39.91669,0,0,0,7.19,15.008"
       id="path39" />
    <path
       class="b160f0ba-3409-4805-a56d-b13ac1d0454a"
       d="M59.338,90.6355a106.305,106.305,0,0,1-11.008-6.251v25.714a11.72524,11.72524,0,0,1-3.589,8.618,11.89068,11.89068,0,0,1-16.989,0,11.89842,11.89842,0,0,1-3.482-8.618V57.0755a34.2796,34.2796,0,0,1,.508-24.622,49.54712,49.54712,0,0,1,8.868-14.231A77.98009,77.98009,0,0,1,46.868,6.2605c1.053-.768,2.15-1.458,3.226-2.183A35.04907,35.04907,0,0,0,36.3,1.3575a34.99536,34.99536,0,0,0-14.141,2.849A36.98855,36.98855,0,0,0,2.848,23.5175,35.02586,35.02586,0,0,0,0,37.65651v72.599a35.02638,35.02638,0,0,0,2.848,14.142,37.01,37.01,0,0,0,19.311,19.31,35.02948,35.02948,0,0,0,14.141,2.85,35.03716,35.03716,0,0,0,14.139-2.85,37.00981,37.00981,0,0,0,19.311-19.31,34.99386,34.99386,0,0,0,2.85-14.142V96.2095a136.246,136.246,0,0,1-13.262-5.574"
       id="path41" />
    <path
       class="b160f0ba-3409-4805-a56d-b13ac1d0454a"
       d="M204.43809,100.0203c-3.88.961-7.779,1.845-11.687,2.688-1.745.376-3.501.702-5.26,1.012v42.837h24.269v-48.575c-2.423.738-4.861,1.428-7.322,2.038"
       id="path43" />
    <path
       class="b160f0ba-3409-4805-a56d-b13ac1d0454a"
       d="M211.76041,1.14619h-48.542v24.214c.074.02.149.037.222.057h24.05v2.992a80.83348,80.83348,0,0,0,8.189-.322c2.775-.272,5.548-.576,8.319-.89.649-.074,1.287-.247,1.93-.375.019.049.037.098.055.147-.25.107-.495.228-.752.317a84.76,84.76,0,0,1-8.714,2.454c-2.984.682-5.995,1.189-9.027,1.582v14.251q4.4145-.1635,8.818-.597c3.405-.335,6.794-.851,10.189-1.287.253-.032.507-.05.761-.075.011.07.021.14.031.21-2.03.622-4.042,1.314-6.094,1.848-3.339.869-6.684,1.74-10.066,2.411-1.206.239-2.423.423-3.639.608v19.611c4.373-.2,8.737-.487,13.08-1.056,2.595-.34,5.195-.652,7.79-1.003.853-.116,1.695-.319,2.543-.477a1.31427,1.31427,0,0,1,.774.041c-.223.1-.438.219-.669.297q-6.16048,2.1195-12.486,3.695c-3.652.908-7.325,1.7-11.032,2.34v26.457c.339-.012.679-.012,1.018-.024,2.643-.107,5.28-.349,7.92-.534,5.134-.36,10.24-.952,15.332-1.672v-70.949h24.271V1.14619Z"
       id="path45" />
  </g>
</svg>
