<?xml version="1.0" encoding="UTF-8" standalone="no"?>
<!-- Created with Inkscape (http://www.inkscape.org/) -->

<svg
   xmlns:dc="http://purl.org/dc/elements/1.1/"
   xmlns:cc="http://creativecommons.org/ns#"
   xmlns:rdf="http://www.w3.org/1999/02/22-rdf-syntax-ns#"
   xmlns:svg="http://www.w3.org/2000/svg"
   xmlns="http://www.w3.org/2000/svg"
   xmlns:sodipodi="http://sodipodi.sourceforge.net/DTD/sodipodi-0.dtd"
   xmlns:inkscape="http://www.inkscape.org/namespaces/inkscape"
   version="1.1"
   id="svg815"
   xml:space="preserve"
   width="294.80798"
   height="354.51709"
   viewBox="0 0 294.80798 354.51708"
   sodipodi:docname="LogoNebula20.svg"
   inkscape:version="0.92.4 (5da689c313, 2019-01-14)"
   inkscape:export-filename="C:\Users\a.tucci\Documents\Visual Studio Code\SoapClient\Nebula20ClientUI\Images\text839.png"
   inkscape:export-xdpi="96"
   inkscape:export-ydpi="96"><metadata
     id="metadata821"><rdf:RDF><cc:Work
         rdf:about=""><dc:format>image/svg+xml</dc:format><dc:type
           rdf:resource="http://purl.org/dc/dcmitype/StillImage" /><dc:title /></cc:Work></rdf:RDF></metadata><defs
     id="defs819"><clipPath
       clipPathUnits="userSpaceOnUse"
       id="clipPath831"><path
         d="M 0,841.89 H 595.276 V 0 H 0 Z"
         id="path829"
         inkscape:connector-curvature="0" /></clipPath></defs><sodipodi:namedview
     pagecolor="#ffffff"
     bordercolor="#666666"
     borderopacity="1"
     objecttolerance="10"
     gridtolerance="10"
     guidetolerance="10"
     inkscape:pageopacity="0"
     inkscape:pageshadow="2"
     inkscape:window-width="1920"
     inkscape:window-height="1017"
     id="namedview817"
     showgrid="false"
     inkscape:zoom="1"
     inkscape:cx="79.069141"
     inkscape:cy="161.16436"
     inkscape:window-x="1912"
     inkscape:window-y="-8"
     inkscape:window-maximized="1"
     inkscape:current-layer="g823" /><g
     id="g823"
     inkscape:groupmode="layer"
     inkscape:label="Logo LTL"
     transform="matrix(1.3333333,0,0,-1.3333333,-249.44679,733.54291)"><g
   id="g825"
   transform="matrix(6,0,0,6,-1488.1905,-2086.0664)"><g
     id="g827"
     clip-path="url(#clipPath831)"><g
       id="g833"
       transform="translate(299.9336,418.4816)"><path
         d="m 0,0 -0.471,-0.488 h -4.853 l -0.398,0.405 1.462,6.427 -0.489,0.47 -7.223,-0.004 -0.491,0.473 0.501,2.22 0.478,0.489 V 9.98 h 8.115 l 0.001,0.009 h 6.31 V 9.986 L 6.557,9.989 H 6.592 L 10.167,9.992 10.658,9.518 10.157,7.297 9.679,6.81 V 6.82 H 1.919 L 1.922,6.816 1.457,6.345 Z m -1.042,-4.575 -0.479,-0.479 -13.306,0.008 -0.385,0.387 2.204,9.596 0.473,0.487 h 4.851 l 0.396,-0.403 -1.46,-6.426 0.489,-0.473 h 7.228 l 0.493,-0.476 z M 2.083,-5.054 1.697,-4.669 3.899,4.926 4.373,5.413 H 9.227 L 9.622,5.01 8.162,-1.416 8.649,-1.89 h 6.959 c 0.337,1.398 0.522,2.855 0.522,4.353 0,10.178 -8.248,18.426 -18.425,18.426 -10.179,0 -18.426,-8.248 -18.426,-18.426 0,-10.175 8.247,-18.425 18.426,-18.425 7.494,0 13.939,4.478 16.818,10.898 z"
         style="fill:#cf102d;fill-opacity:1;fill-rule:nonzero;stroke:none"
         id="path835"
         inkscape:connector-curvature="0" /></g></g></g><text
   xml:space="preserve"
   style="font-style:italic;font-variant:normal;font-weight:bold;font-stretch:normal;font-size:36px;line-height:1.25;font-family:'Blade Runner Movie Font';-inkscape-font-specification:'Blade Runner Movie Font, Bold Italic';font-variant-ligatures:normal;font-variant-caps:normal;font-variant-numeric:normal;font-feature-settings:normal;text-align:start;letter-spacing:0px;word-spacing:0px;writing-mode:lr-tb;text-anchor:start;opacity:0.97000002;fill:#cf102d;fill-opacity:1;stroke:none;stroke-width:4.5"
   x="186.95592"
   y="-284.33969"
   id="text839"
   transform="scale(1,-1)"><tspan
     sodipodi:role="line"
     id="tspan858"
     x="186.95592"
     y="-284.33969"
     style="stroke-width:4.5">NEBUL 2.0</tspan></text>

</g></svg>