<?xml version="1.0" encoding="UTF-8" standalone="no"?>
<svg
   xmlns:dc="http://purl.org/dc/elements/1.1/"
   xmlns:cc="http://creativecommons.org/ns#"
   xmlns:rdf="http://www.w3.org/1999/02/22-rdf-syntax-ns#"
   xmlns:svg="http://www.w3.org/2000/svg"
   xmlns="http://www.w3.org/2000/svg"
   xmlns:sodipodi="http://sodipodi.sourceforge.net/DTD/sodipodi-0.dtd"
   xmlns:inkscape="http://www.inkscape.org/namespaces/inkscape"
   id="aed41a3e-9a9b-4c8e-8d22-a7de3d04fd44"
   data-name="Layer 1"
   width="150.02826"
   height="150.02826"
   viewBox="0 0 150.02826 150.02826"
   version="1.1"
   sodipodi:docname="LogoOptoPlusIco.svg"
   inkscape:export-filename="C:\Users\a.tucci\Documents\Visual Studio Code\OptoplusClient\OptoPlusClientUI\Images\LogoOptoPlusIco-256.png"
   inkscape:export-xdpi="163.80914"
   inkscape:export-ydpi="163.80914"
   inkscape:version="0.92.4 (5da689c313, 2019-01-14)">
  <metadata
     id="metadata52">
    <rdf:RDF>
      <cc:Work
         rdf:about="">
        <dc:format>image/svg+xml</dc:format>
        <dc:type
           rdf:resource="http://purl.org/dc/dcmitype/StillImage" />
        <dc:title>Artboard 1</dc:title>
        <dc:title>Artboard 1</dc:title>
      </cc:Work>
    </rdf:RDF>
  </metadata>
  <sodipodi:namedview
     pagecolor="#ffffff"
     bordercolor="#666666"
     borderopacity="1"
     objecttolerance="10"
     gridtolerance="10"
     guidetolerance="10"
     inkscape:pageopacity="0"
     inkscape:pageshadow="2"
     inkscape:window-width="1920"
     inkscape:window-height="1017"
     id="namedview50"
     showgrid="false"
     inkscape:zoom="4"
     inkscape:cx="30.796924"
     inkscape:cy="58.169606"
     inkscape:window-x="1912"
     inkscape:window-y="-8"
     inkscape:window-maximized="1"
     inkscape:current-layer="aed41a3e-9a9b-4c8e-8d22-a7de3d04fd44" />
  <defs
     id="defs7">
    <style
       id="style2">
      .b467d56a-31b5-4a54-ac29-21284d9f245f {
        fill: none;
      }

      .aa485449-5178-439a-afb4-500bd46ff83a {
        clip-path: url(#a162f785-8aa3-4654-8afb-04b380e99052);
      }

      .b160f0ba-3409-4805-a56d-b13ac1d0454a {
        fill: #009fe3;
      }
    </style>
    <clipPath
       id="a162f785-8aa3-4654-8afb-04b380e99052">
      <rect
         class="b467d56a-31b5-4a54-ac29-21284d9f245f"
         x="-97.698601"
         y="-66.720398"
         width="566.92902"
         height="283.465"
         id="rect4"
         style="fill:none" />
    </clipPath>
  </defs>
  <title
     id="title9">Artboard 1</title>
  <g
     class="aa485449-5178-439a-afb4-500bd46ff83a"
     clip-path="url(#a162f785-8aa3-4654-8afb-04b380e99052)"
     id="g47"
     transform="translate(-228.61249,0.00346324)">
    <path
       class="b160f0ba-3409-4805-a56d-b13ac1d0454a"
       d="m 349.81309,21.719 h 21.719 v -3.834 a 2.11324,2.11324 0 0 0 -0.514,-1.508 1.92111,1.92111 0 0 0 -1.473,-0.55 h -13.224 V 2.124 a 2.20113,2.20113 0 0 0 -0.548,-1.508 1.92067,1.92067 0 0 0 -1.508,-0.616 h -4.452 z"
       id="path23"
       inkscape:connector-curvature="0"
       style="fill:#009fe3" />
    <path
       class="b160f0ba-3409-4805-a56d-b13ac1d0454a"
       d="M 346.56409,21.719 V 0 h -4.59 a 2.11539,2.11539 0 0 0 -1.506,0.513 1.91761,1.91761 0 0 0 -0.55,1.474 v 13.84 h -12.949 a 2.016,2.016 0 0 0 -1.542,0.619 2.20114,2.20114 0 0 0 -0.583,1.575 v 3.698 z"
       id="path25"
       inkscape:connector-curvature="0"
       style="fill:#009fe3" />
    <path
       class="b160f0ba-3409-4805-a56d-b13ac1d0454a"
       d="m 346.56409,24.968 h -21.72 v 3.836 a 1.75442,1.75442 0 0 0 0.72,1.576 2.37321,2.37321 0 0 0 1.268,0.479 h 13.086 v 13.704 a 2.02526,2.02526 0 0 0 0.617,1.542 2.2054,2.2054 0 0 0 1.577,0.582 h 4.452 z"
       id="path27"
       inkscape:connector-curvature="0"
       style="fill:#009fe3" />
    <path
       class="b160f0ba-3409-4805-a56d-b13ac1d0454a"
       d="m 349.81309,24.968 v 21.719 h 4.452 a 1.75272,1.75272 0 0 0 1.576,-0.719 2.387,2.387 0 0 0 0.48,-1.268 V 30.859 h 13.087 a 2.19375,2.19375 0 0 0 1.508,-0.547 1.91635,1.91635 0 0 0 0.616,-1.508 v -3.836 z"
       id="path29"
       inkscape:connector-curvature="0"
       style="fill:#009fe3" />
    <path
       d="m 313.18031,88.7908 v 19.63 a 33.89338,33.89338 0 0 1 -2.757,13.647 35.59639,35.59639 0 0 1 -18.566,18.565 35.15564,35.15564 0 0 1 -27.285,0 35.62316,35.62316 0 0 1 -18.567,-18.571 33.92152,33.92152 0 0 1 -2.755,-13.641 v -65.505 a 33.955,33.955 0 0 1 2.755,-13.64 35.59267,35.59267 0 0 1 18.571,-18.568 35.15059,35.15059 0 0 1 27.283,0 35.573,35.573 0 0 1 18.566,18.57 33.88648,33.88648 0 0 1 2.755,13.638 v 26.156 l 6.638,-1.898 v -24.258 a 40.46813,40.46813 0 0 0 -3.308,-16.289 42.20155,42.20155 0 0 0 -22.002,-22.004 41.78242,41.78242 0 0 0 -32.583,-0.002 42.24335,42.24335 0 0 0 -22.005,22.006 40.52651,40.52651 0 0 0 -3.307,16.289 v 65.505 a 40.53543,40.53543 0 0 0 3.305,16.292 42.26129,42.26129 0 0 0 22.004,22.004 41.77086,41.77086 0 0 0 32.583,0 42.23342,42.23342 0 0 0 22.003,-21.995 40.54382,40.54382 0 0 0 3.31,-16.301 v -17.784 z"
       id="path31"
       inkscape:connector-curvature="0" />
    <path
       d="m 299.7819,21.3396 a 31.04505,31.04505 0 0 0 -4.488,-3.709 l -1.908,6.858 q 0.88651,0.7335 1.701,1.546 a 24.77433,24.77433 0 0 1 5.197,7.662 22.93615,22.93615 0 0 1 1.834,9.22 v 65.504 a 22.98734,22.98734 0 0 1 -1.834,9.227 24.5625,24.5625 0 0 1 -12.844,12.84 24.20531,24.20531 0 0 1 -18.449,0.002 24.53641,24.53641 0 0 1 -12.844,-12.846 22.96814,22.96814 0 0 1 -1.834,-9.223 v -65.504 a 22.99373,22.99373 0 0 1 1.834,-9.224 24.74372,24.74372 0 0 1 5.191,-7.653 c 0.432,-0.433 0.893,-0.836 1.356,-1.234 l -1.965,-6.869 a 30.58316,30.58316 0 0 0 -10.666,13.107 29.5522,29.5522 0 0 0 -2.387,11.873 v 65.504 a 29.55689,29.55689 0 0 0 2.385,11.873 31.17761,31.17761 0 0 0 16.281,16.281 30.71486,30.71486 0 0 0 23.748,0 31.2,31.2 0 0 0 16.278,-16.276 29.55254,29.55254 0 0 0 2.388,-11.878 v -65.504 a 29.50155,29.50155 0 0 0 -2.388,-11.871 31.37566,31.37566 0 0 0 -6.586,-9.706"
       id="path33"
       inkscape:connector-curvature="0" />
    <path
       d="m 292.07481,29.0144 a 19.56991,19.56991 0 0 0 -27.909,0.097 19.606,19.606 0 0 0 -5.654,13.947 v 30.538 l 6.637,1.845 v -32.383 a 13.08635,13.08635 0 0 1 3.771,-9.315 12.93264,12.93264 0 0 1 18.473,-0.025 12.93916,12.93916 0 0 1 3.889,9.34 v 65.221 a 13.24237,13.24237 0 0 1 -13.065,13.21 12.703,12.703 0 0 1 -9.295,-3.888 13.10788,13.10788 0 0 1 -3.773,-9.322 v -25.469 l -6.637,1.898 v 23.571 a 19.61973,19.61973 0 0 0 5.659,13.957 19.57681,19.57681 0 0 0 27.909,0.087 19.44479,19.44479 0 0 0 5.84,-14.044 v -65.221 a 19.443,19.443 0 0 0 -5.845,-14.044"
       id="path35"
       inkscape:connector-curvature="0" />
    <path
       d="M 276.21159,86.283 V 43.059 a 1.92533,1.92533 0 0 1 0.627,-1.59 1.5845,1.5845 0 0 1 1.378,-0.556 1.66673,1.66673 0 0 1 1.37,0.646 1.78855,1.78855 0 0 1 0.633,1.5 V 86.08 l 6.568,22.964 c 0.021,-0.256 0.07,-0.499 0.07,-0.765 v -65.22 a 8.36758,8.36758 0 0 0 -2.586,-6.201 8.50624,8.50624 0 0 0 -12.185,-0.024 8.51926,8.51926 0 0 0 -2.513,6.225 v 65.22 a 9.77909,9.77909 0 0 0 0.126,1.433 z"
       id="path37"
       inkscape:connector-curvature="0" />
  </g>
  <g
     inkscape:groupmode="layer"
     id="layer1"
     inkscape:label="Sfondo" />
  <g
     inkscape:groupmode="layer"
     id="layer2"
     inkscape:label="O" />
  <g
     inkscape:groupmode="layer"
     id="layer3"
     inkscape:label="Croce" />
</svg>
